<?xml version="1.0" standalone="no"?>
<!DOCTYPE svg PUBLIC "-//W3C//DTD SVG 20010904//EN"
 "http://www.w3.org/TR/2001/REC-SVG-20010904/DTD/svg10.dtd">
<svg version="1.0" xmlns="http://www.w3.org/2000/svg"
 width="1280.000000pt" height="1251.000000pt" viewBox="0 0 1280.000000 1251.000000"
 preserveAspectRatio="xMidYMid meet">
<metadata>
Created by potrace 1.15, written by Peter Selinger 2001-2017
</metadata>
<g transform="translate(0.000000,1251.000000) scale(0.100000,-0.100000)"
fill="#000000" stroke="none">
<path d="M5490 11809 c-1643 -82 -2933 -690 -3696 -1744 -457 -630 -726 -1409
-805 -2330 -19 -224 -12 -461 21 -695 7 -49 6 -75 -4 -104 -15 -43 -8 -87 19
-116 13 -14 14 -26 6 -61 -6 -26 -6 -63 -1 -88 7 -41 6 -47 -21 -74 -61 -61
-33 -158 56 -192 33 -13 46 -25 54 -48 16 -44 14 -57 -14 -79 -28 -22 -45 -73
-38 -112 7 -37 53 -80 101 -94 38 -12 41 -15 57 -77 l18 -66 -33 -34 c-26 -27
-33 -42 -33 -75 0 -54 26 -89 90 -120 l51 -25 30 -100 c27 -90 28 -103 16
-127 -28 -55 -8 -125 44 -152 34 -17 58 -94 53 -171 -2 -43 2 -56 26 -86 16
-21 39 -71 52 -118 l24 -82 -21 -15 c-12 -8 -26 -33 -32 -55 -16 -58 9 -106
72 -137 58 -29 77 -72 53 -118 -30 -58 -13 -121 42 -155 25 -16 36 -33 49 -75
15 -52 15 -55 -6 -84 -26 -37 -29 -98 -5 -133 9 -15 34 -34 56 -43 48 -22 61
-62 29 -94 -66 -66 -38 -159 60 -200 24 -10 33 -23 45 -64 10 -33 12 -52 5
-54 -18 -6 -40 -59 -40 -95 0 -42 29 -81 80 -107 49 -25 58 -54 21 -70 -35
-14 -61 -59 -61 -103 0 -47 37 -90 109 -127 48 -23 59 -35 68 -65 10 -32 9
-41 -7 -64 -44 -59 -27 -137 35 -170 58 -31 57 -30 33 -64 -27 -37 -28 -95 -4
-132 9 -14 34 -36 56 -50 47 -30 50 -49 12 -69 -45 -23 -69 -86 -52 -132 18
-46 49 -73 107 -91 51 -16 73 -43 34 -43 -11 0 -33 -14 -50 -31 -24 -24 -31
-39 -31 -70 0 -72 26 -101 122 -138 23 -9 26 -15 26 -55 -2 -83 18 -99 238
-187 183 -73 429 -152 569 -184 236 -54 388 -45 796 46 52 12 58 11 87 -9 37
-27 404 -150 567 -191 397 -98 561 -90 1039 55 194 58 225 57 464 -14 445
-133 602 -138 1007 -35 184 47 512 159 550 187 l29 23 91 -23 c151 -38 324
-65 455 -71 109 -4 141 -2 252 21 70 14 194 47 275 72 162 50 479 172 531 204
43 26 66 79 54 123 -9 32 -8 33 33 50 59 25 86 57 92 110 5 39 1 48 -27 80
-18 21 -39 37 -47 37 -32 0 -4 25 49 42 76 26 111 64 111 122 0 53 -21 88 -62
106 -26 10 -30 17 -25 34 4 11 14 25 23 30 9 5 28 23 44 39 31 33 37 99 12
133 -23 31 -18 44 30 64 91 39 110 123 44 196 -17 18 -18 25 -7 57 11 29 24
42 68 64 107 54 130 144 54 210 -44 39 -40 57 16 79 54 22 90 66 90 110 0 40
-22 89 -45 97 -18 7 -19 19 -5 68 8 27 19 40 41 49 55 23 89 66 89 114 0 38
-19 81 -44 98 -22 15 8 61 48 75 49 16 60 26 80 66 19 42 4 109 -30 136 -23
18 -24 21 -12 70 6 28 15 51 19 51 20 0 70 56 80 90 10 33 9 44 -7 77 -29 59
-15 98 40 112 89 22 133 92 103 163 -12 28 -45 61 -74 73 -9 3 47 159 60 167
37 20 60 102 38 137 -5 7 -3 33 3 60 11 41 17 48 59 68 49 24 77 63 77 108 0
29 -21 75 -43 93 -13 11 -11 23 9 94 13 44 25 82 26 83 2 2 30 16 64 33 71 36
94 66 94 123 0 36 -6 48 -41 81 l-40 38 15 54 16 53 72 24 c85 28 113 59 112
119 -2 51 -26 87 -73 108 l-37 17 16 55 c15 52 19 56 72 82 96 46 117 126 52
195 -34 36 -35 40 -25 74 6 20 11 50 11 67 0 25 6 35 29 47 101 52 94 176 -11
216 -21 8 -27 16 -23 32 29 141 49 412 41 572 -38 847 -345 1616 -925 2315
-123 148 -394 424 -541 551 -624 536 -1364 924 -2151 1128 -547 142 -1025 189
-1619 160z m850 -583 c246 -33 407 -64 630 -122 1081 -282 2068 -960 2634
-1809 305 -457 468 -886 542 -1425 16 -118 23 -337 14 -445 -11 -130 -48 -386
-59 -403 -3 -6 -127 -17 -306 -27 -485 -26 -657 -47 -1056 -126 l-207 -41
-173 37 c-96 21 -194 41 -219 45 -70 12 -113 -17 -146 -98 -10 -26 -26 -47
-39 -52 -15 -6 -74 0 -167 15 -196 32 -461 63 -648 74 -249 16 -571 -11 -1037
-87 l-233 -38 -232 38 c-463 75 -789 103 -1033 88 -177 -11 -380 -33 -560 -61
l-130 -20 -65 31 c-43 21 -72 42 -83 61 -24 42 -68 58 -154 54 -56 -2 -82 -8
-116 -28 -24 -14 -96 -39 -161 -55 l-117 -30 -137 24 c-400 71 -647 93 -1120
101 l-362 6 -6 26 c-3 14 -7 36 -10 49 -36 176 -51 460 -35 657 111 1350 663
2335 1646 2937 564 345 1302 567 2090 628 77 5 158 12 180 14 22 2 200 3 395
1 257 -2 389 -7 480 -19z m3103 -4493 c-7 -2 -21 -2 -30 0 -10 3 -4 5 12 5 17
0 24 -2 18 -5z"/>
</g>
</svg>
